<svg width="17" height="17" viewBox="0 0 17 17" fill="none" xmlns="http://www.w3.org/2000/svg">
<g id="SVG" clip-path="url(#clip0_308_379)">
<path id="Vector" d="M8.85986 0.769531C10.9816 0.769531 13.0164 1.61239 14.5167 3.11268C16.017 4.61297 16.8599 6.6478 16.8599 8.76953C16.8599 10.8913 16.017 12.9261 14.5167 14.4264C13.0164 15.9267 10.9816 16.7695 8.85986 16.7695C6.73813 16.7695 4.7033 15.9267 3.20301 14.4264C1.70272 12.9261 0.859863 10.8913 0.859863 8.76953C0.859863 6.6478 1.70272 4.61297 3.20301 3.11268C4.7033 1.61239 6.73813 0.769531 8.85986 0.769531ZM5.35986 8.26953C5.22725 8.26953 5.10008 8.32221 5.00631 8.41598C4.91254 8.50975 4.85986 8.63692 4.85986 8.76953C4.85986 8.90214 4.91254 9.02932 5.00631 9.12309C5.10008 9.21685 5.22725 9.26953 5.35986 9.26953H11.1529L9.00586 11.4155C8.95938 11.462 8.9225 11.5172 8.89734 11.5779C8.87218 11.6387 8.85923 11.7038 8.85923 11.7695C8.85923 11.8353 8.87218 11.9004 8.89734 11.9611C8.9225 12.0219 8.95938 12.077 9.00586 12.1235C9.05235 12.17 9.10754 12.2069 9.16828 12.2321C9.22902 12.2572 9.29412 12.2702 9.35986 12.2702C9.42561 12.2702 9.49071 12.2572 9.55145 12.2321C9.61219 12.2069 9.66738 12.17 9.71386 12.1235L12.7139 9.12353C12.7604 9.07709 12.7974 9.02191 12.8226 8.96116C12.8478 8.90042 12.8608 8.8353 12.8608 8.76953C12.8608 8.70376 12.8478 8.63864 12.8226 8.5779C12.7974 8.51715 12.7604 8.46198 12.7139 8.41553L9.71386 5.41553C9.66738 5.36904 9.61219 5.33217 9.55145 5.30701C9.49071 5.28185 9.42561 5.2689 9.35986 5.2689C9.29412 5.2689 9.22902 5.28185 9.16828 5.30701C9.10754 5.33217 9.05235 5.36904 9.00586 5.41553C8.95938 5.46202 8.9225 5.51721 8.89734 5.57795C8.87218 5.63869 8.85923 5.70379 8.85923 5.76953C8.85923 5.83528 8.87218 5.90038 8.89734 5.96111C8.9225 6.02185 8.95938 6.07704 9.00586 6.12353L11.1529 8.26953H5.35986Z" fill="white"/>
</g>
<defs>
<clipPath id="clip0_308_379">
<rect width="16" height="16" fill="white" transform="translate(0.859863 0.769531)"/>
</clipPath>
</defs>
</svg>
