<svg width="153" height="37" viewBox="0 0 153 37" fill="none" xmlns="http://www.w3.org/2000/svg">
<path d="M66.3608 12.5518L66.2686 12.5928C65.7354 12.1006 65.0928 11.7075 64.3408 11.4136C63.5957 11.1196 62.7754 10.9727 61.8799 10.9727C61.0186 10.9727 60.229 11.1094 59.5112 11.3828C58.7935 11.6494 58.1748 12.0391 57.6553 12.5518C57.1426 13.0645 56.7427 13.6934 56.4556 14.4385C56.1685 15.1836 56.0249 16.0312 56.0249 16.9814C56.0249 18.0273 56.1616 19.0049 56.4351 19.9141C56.7085 20.8164 57.1152 21.5991 57.6553 22.2622C58.1953 22.9253 58.8687 23.4482 59.6753 23.8311C60.4888 24.207 61.4355 24.395 62.5156 24.395C62.9053 24.395 63.2949 24.354 63.6846 24.272C64.0742 24.1899 64.4468 24.0703 64.8022 23.9131C65.1646 23.749 65.5029 23.5542 65.8174 23.3286C66.1387 23.0962 66.4292 22.833 66.689 22.5391L66.8018 22.6108L65.9814 24.7026C65.4688 24.9009 64.9014 25.0513 64.2793 25.1538C63.6641 25.2632 63.042 25.3179 62.4131 25.3179C61.1484 25.3179 59.9897 25.1367 58.937 24.7744C57.8911 24.4053 56.9888 23.8857 56.23 23.2158C55.478 22.5459 54.8901 21.7427 54.4663 20.8062C54.0493 19.8628 53.8408 18.8169 53.8408 17.6685C53.8408 17.019 53.9229 16.3799 54.0869 15.751C54.2578 15.1221 54.5039 14.5239 54.8252 13.9565C55.1465 13.3892 55.543 12.8696 56.0146 12.3979C56.4863 11.9194 57.0229 11.5059 57.6245 11.1572C58.2329 10.8086 58.8994 10.5386 59.624 10.3472C60.3555 10.1489 61.145 10.0498 61.9927 10.0498C63.312 10.0498 64.5356 10.2515 65.6636 10.6548L66.3608 12.5518ZM67.9707 19.4526C67.9707 18.646 68.1211 17.8975 68.4219 17.207C68.7295 16.5166 69.1465 15.9185 69.6729 15.4126C70.1992 14.8999 70.8213 14.5 71.5391 14.2129C72.2568 13.9258 73.0259 13.7822 73.8462 13.7822C74.6528 13.7822 75.4116 13.9189 76.1226 14.1924C76.8403 14.459 77.4624 14.8418 77.9888 15.3408C78.522 15.8398 78.9424 16.4448 79.25 17.1558C79.5576 17.8667 79.7114 18.6631 79.7114 19.5449C79.7114 20.2764 79.5815 20.9839 79.3218 21.6675C79.062 22.3442 78.6826 22.9458 78.1836 23.4722C77.6846 23.9917 77.0693 24.4087 76.3379 24.7231C75.6064 25.0308 74.769 25.1846 73.8257 25.1846C73.0259 25.1846 72.2705 25.0513 71.5596 24.7847C70.8486 24.5181 70.2266 24.1387 69.6934 23.6465C69.1602 23.1475 68.7397 22.5459 68.4321 21.8418C68.1245 21.1309 67.9707 20.3345 67.9707 19.4526ZM74.082 24.4565C74.6016 24.4565 75.0801 24.354 75.5176 24.1489C75.9551 23.9438 76.3311 23.6499 76.6455 23.2671C76.9668 22.8843 77.2129 22.4194 77.3838 21.8726C77.5615 21.3188 77.6504 20.6968 77.6504 20.0063C77.6504 19.2202 77.5649 18.4922 77.394 17.8223C77.23 17.1523 76.9771 16.5747 76.6353 16.0894C76.3003 15.5972 75.8799 15.2144 75.374 14.9409C74.8682 14.6606 74.2769 14.5205 73.6001 14.5205C73.0806 14.5205 72.6021 14.6196 72.1646 14.8179C71.7271 15.0161 71.3477 15.3032 71.0264 15.6792C70.7119 16.0552 70.4658 16.5166 70.2881 17.0635C70.1104 17.6104 70.0215 18.2324 70.0215 18.9297C70.0215 19.709 70.1069 20.437 70.2778 21.1138C70.4556 21.7837 70.7119 22.3682 71.0469 22.8672C71.3887 23.3594 71.8125 23.749 72.3184 24.0361C72.8242 24.3164 73.4121 24.4565 74.082 24.4565ZM83.9258 14.7051C83.9189 15.2656 83.9121 15.8091 83.9053 16.3354C83.9053 16.561 83.9019 16.7935 83.895 17.0327C83.895 17.2651 83.8916 17.4976 83.8848 17.73C83.8848 17.9624 83.8848 18.1846 83.8848 18.3965C83.8848 18.6016 83.8848 18.7861 83.8848 18.9502C83.8848 19.292 83.8848 19.7056 83.8848 20.1909C83.8916 20.6694 83.8984 21.1616 83.9053 21.6675C83.9121 22.1733 83.9224 22.6621 83.936 23.1338C83.9497 23.5986 83.9668 23.9883 83.9873 24.3027C84.0557 24.3164 84.1445 24.3301 84.2539 24.3438C84.3633 24.3506 84.4761 24.3608 84.5923 24.3745C84.7153 24.3813 84.835 24.3882 84.9512 24.395C85.0674 24.395 85.1665 24.395 85.2485 24.395C85.6245 24.395 86.0039 24.3711 86.3867 24.3232C86.7764 24.2754 87.1489 24.1865 87.5044 24.0566C87.8667 23.9199 88.2051 23.7354 88.5195 23.5029C88.834 23.2705 89.1074 22.9731 89.3398 22.6108C89.5791 22.2417 89.7637 21.8008 89.8936 21.2881C90.0303 20.7686 90.0986 20.1567 90.0986 19.4526C90.0986 17.9009 89.7261 16.7046 88.981 15.8638C88.2427 15.0229 87.1387 14.6025 85.6689 14.6025C85.5254 14.6025 85.3716 14.606 85.2075 14.6128C85.0503 14.6196 84.8931 14.6299 84.7358 14.6436C84.5786 14.6504 84.4282 14.6606 84.2847 14.6743C84.1479 14.688 84.0283 14.6982 83.9258 14.7051ZM81.8032 13.9565C81.9673 13.9634 82.1211 13.9668 82.2646 13.9668C82.3877 13.9736 82.5073 13.9771 82.6235 13.9771C82.7397 13.9771 82.8252 13.9771 82.8799 13.9771C82.9756 13.9771 83.1465 13.9736 83.3926 13.9668C83.6387 13.96 83.9155 13.9531 84.2231 13.9463C84.5376 13.9326 84.8657 13.9224 85.2075 13.9155C85.5562 13.9019 85.8774 13.895 86.1714 13.895C86.9712 13.895 87.7334 13.9873 88.458 14.1719C89.1826 14.3564 89.8184 14.6606 90.3652 15.0845C90.9189 15.5015 91.3564 16.0518 91.6777 16.7354C91.999 17.4121 92.1597 18.2495 92.1597 19.2476C92.1597 20.3208 91.9751 21.23 91.606 21.9751C91.2368 22.7202 90.7378 23.3286 90.1089 23.8003C89.48 24.2651 88.7485 24.6035 87.9146 24.8154C87.0874 25.0205 86.2124 25.123 85.2896 25.123C85.0708 25.123 84.7974 25.1162 84.4692 25.1025C84.1411 25.0889 83.8062 25.0752 83.4644 25.0615C83.1226 25.0479 82.7979 25.0342 82.4902 25.0205C82.1895 25.0068 81.9604 25 81.8032 25V24.959C81.8511 24.8154 81.8921 24.6309 81.9263 24.4053C81.9673 24.1797 81.998 23.9028 82.0186 23.5747C82.0459 23.2397 82.0664 22.8433 82.0801 22.3853C82.0938 21.9272 82.1006 21.3906 82.1006 20.7754V18.1914C82.1006 17.5762 82.0938 17.0396 82.0801 16.5815C82.0664 16.1235 82.0459 15.7271 82.0186 15.3921C81.998 15.0571 81.9673 14.7769 81.9263 14.5513C81.8921 14.3257 81.8511 14.1411 81.8032 13.9976V13.9565ZM94.3335 13.9771C95.0034 13.9771 95.6904 13.9771 96.3945 13.9771C97.0986 13.9702 97.7515 13.9634 98.353 13.9565C98.9546 13.9429 99.4707 13.9292 99.9014 13.9155C100.339 13.9019 100.626 13.8813 100.763 13.854L100.363 14.9614C100.178 14.9136 99.9697 14.8691 99.7373 14.8281C99.5322 14.7939 99.2827 14.7632 98.9888 14.7358C98.7017 14.7017 98.3667 14.6846 97.9839 14.6846C97.8472 14.6846 97.6899 14.6914 97.5122 14.7051C97.3345 14.7119 97.1636 14.7222 96.9995 14.7358C96.8081 14.7495 96.6133 14.7632 96.415 14.7769V18.8271C96.9688 18.8203 97.4678 18.8066 97.9121 18.7861C98.3564 18.7656 98.7358 18.7383 99.0503 18.7041C99.4194 18.6768 99.7441 18.6392 100.024 18.5913L99.7783 19.8115C99.4023 19.7637 99.0229 19.7227 98.6401 19.6885C98.312 19.6543 97.9497 19.627 97.5532 19.6064C97.1567 19.5791 96.7773 19.5654 96.415 19.5654V24.2207C97.0508 24.2207 97.6353 24.1968 98.1685 24.1489C98.7017 24.0942 99.1665 24.0361 99.563 23.9746C100.028 23.8994 100.448 23.814 100.824 23.7183L100.588 25.0615C100.486 25.0547 100.318 25.0444 100.086 25.0308C99.8604 25.0239 99.6211 25.0171 99.3682 25.0103C99.1221 25.0103 98.8896 25.0068 98.6709 25C98.4521 25 98.3018 25 98.2197 25H94.3335V24.959C94.3813 24.8154 94.4224 24.6309 94.4565 24.4053C94.4976 24.1797 94.5283 23.9028 94.5488 23.5747C94.5762 23.2397 94.5967 22.8433 94.6104 22.3853C94.624 21.9272 94.6309 21.3906 94.6309 20.7754V18.1914C94.6309 17.5762 94.624 17.043 94.6104 16.5918C94.5967 16.1338 94.5762 15.7407 94.5488 15.4126C94.5283 15.0776 94.4976 14.7974 94.4565 14.5718C94.4224 14.3462 94.3813 14.1616 94.3335 14.0181V13.9771ZM103.234 10.2959C104.088 10.2959 104.936 10.2925 105.777 10.2856C106.625 10.2788 107.4 10.272 108.104 10.2651C108.809 10.2515 109.41 10.2344 109.909 10.2139C110.408 10.1934 110.747 10.166 110.924 10.1318L110.422 11.4956C110.196 11.4341 109.933 11.3794 109.632 11.3315C109.373 11.2905 109.055 11.2529 108.679 11.2188C108.31 11.1777 107.882 11.1572 107.397 11.1572C107.233 11.1572 107.035 11.1641 106.802 11.1777C106.577 11.1846 106.358 11.1948 106.146 11.2085C105.9 11.2222 105.65 11.2358 105.397 11.2495V16.8481C106.102 16.8413 106.737 16.8208 107.305 16.7866C107.872 16.7524 108.354 16.7183 108.75 16.6841C109.215 16.6431 109.625 16.5952 109.981 16.5405L109.663 18.0273C109.191 17.9658 108.709 17.9077 108.217 17.853C107.793 17.8052 107.332 17.7642 106.833 17.73C106.334 17.689 105.855 17.6685 105.397 17.6685V24.0977C106.204 24.0977 106.946 24.0635 107.623 23.9951C108.299 23.9268 108.891 23.8481 109.396 23.7593C109.984 23.6636 110.521 23.5508 111.006 23.4209L110.709 25.082C110.627 25.0752 110.504 25.0684 110.34 25.0615C110.176 25.0547 109.991 25.0479 109.786 25.041C109.588 25.0342 109.376 25.0273 109.15 25.0205C108.932 25.0205 108.723 25.0171 108.525 25.0103C108.327 25.0103 108.149 25.0068 107.992 25C107.841 25 107.732 25 107.664 25H103.234V24.959C103.275 24.8154 103.312 24.6377 103.347 24.4258C103.388 24.2139 103.422 23.9507 103.449 23.6362C103.477 23.3218 103.497 22.9492 103.511 22.5186C103.524 22.0811 103.531 21.5718 103.531 20.9907V14.3154C103.531 13.7344 103.524 13.2285 103.511 12.7979C103.497 12.3604 103.477 11.9844 103.449 11.6699C103.422 11.3486 103.388 11.082 103.347 10.8701C103.312 10.6582 103.275 10.4805 103.234 10.3369V10.2959ZM115.487 24.2002C116.123 24.2002 116.708 24.1763 117.241 24.1284C117.781 24.0737 118.252 24.0156 118.656 23.9541C119.127 23.8789 119.555 23.7935 119.938 23.6978L119.702 25.0615C119.606 25.0547 119.442 25.0444 119.209 25.0308C118.984 25.0239 118.745 25.0171 118.492 25.0103C118.239 25.0103 118.003 25.0068 117.784 25C117.565 25 117.415 25 117.333 25H113.406V24.959C113.454 24.8154 113.495 24.6309 113.529 24.4053C113.57 24.1797 113.601 23.9028 113.621 23.5747C113.648 23.2397 113.669 22.8433 113.683 22.3853C113.696 21.9272 113.703 21.3906 113.703 20.7754V18.1914C113.703 17.5762 113.696 17.043 113.683 16.5918C113.669 16.1338 113.648 15.7407 113.621 15.4126C113.601 15.0776 113.57 14.7974 113.529 14.5718C113.495 14.3462 113.454 14.1616 113.406 14.0181V13.9771H115.774V14.0181C115.727 14.1616 115.686 14.3462 115.651 14.5718C115.617 14.7974 115.586 15.0776 115.559 15.4126C115.539 15.7407 115.521 16.1338 115.508 16.5918C115.494 17.043 115.487 17.5762 115.487 18.1914V24.2002ZM123.834 14.7051C123.827 15.2656 123.82 15.8091 123.813 16.3354C123.813 16.561 123.81 16.7935 123.803 17.0327C123.803 17.2651 123.8 17.4976 123.793 17.73C123.793 17.9624 123.793 18.1846 123.793 18.3965C123.793 18.6016 123.793 18.7861 123.793 18.9502C123.793 19.292 123.793 19.7056 123.793 20.1909C123.8 20.6694 123.807 21.1616 123.813 21.6675C123.82 22.1733 123.831 22.6621 123.844 23.1338C123.858 23.5986 123.875 23.9883 123.896 24.3027C123.964 24.3164 124.053 24.3301 124.162 24.3438C124.271 24.3506 124.384 24.3608 124.5 24.3745C124.624 24.3813 124.743 24.3882 124.859 24.395C124.976 24.395 125.075 24.395 125.157 24.395C125.533 24.395 125.912 24.3711 126.295 24.3232C126.685 24.2754 127.057 24.1865 127.413 24.0566C127.775 23.9199 128.113 23.7354 128.428 23.5029C128.742 23.2705 129.016 22.9731 129.248 22.6108C129.487 22.2417 129.672 21.8008 129.802 21.2881C129.938 20.7686 130.007 20.1567 130.007 19.4526C130.007 17.9009 129.634 16.7046 128.889 15.8638C128.151 15.0229 127.047 14.6025 125.577 14.6025C125.434 14.6025 125.28 14.606 125.116 14.6128C124.958 14.6196 124.801 14.6299 124.644 14.6436C124.487 14.6504 124.336 14.6606 124.193 14.6743C124.056 14.688 123.937 14.6982 123.834 14.7051ZM121.711 13.9565C121.875 13.9634 122.029 13.9668 122.173 13.9668C122.296 13.9736 122.416 13.9771 122.532 13.9771C122.648 13.9771 122.733 13.9771 122.788 13.9771C122.884 13.9771 123.055 13.9736 123.301 13.9668C123.547 13.96 123.824 13.9531 124.131 13.9463C124.446 13.9326 124.774 13.9224 125.116 13.9155C125.464 13.9019 125.786 13.895 126.08 13.895C126.879 13.895 127.642 13.9873 128.366 14.1719C129.091 14.3564 129.727 14.6606 130.273 15.0845C130.827 15.5015 131.265 16.0518 131.586 16.7354C131.907 17.4121 132.068 18.2495 132.068 19.2476C132.068 20.3208 131.883 21.23 131.514 21.9751C131.145 22.7202 130.646 23.3286 130.017 23.8003C129.388 24.2651 128.657 24.6035 127.823 24.8154C126.996 25.0205 126.121 25.123 125.198 25.123C124.979 25.123 124.706 25.1162 124.377 25.1025C124.049 25.0889 123.714 25.0752 123.373 25.0615C123.031 25.0479 122.706 25.0342 122.398 25.0205C122.098 25.0068 121.869 25 121.711 25V24.959C121.759 24.8154 121.8 24.6309 121.834 24.4053C121.875 24.1797 121.906 23.9028 121.927 23.5747C121.954 23.2397 121.975 22.8433 121.988 22.3853C122.002 21.9272 122.009 21.3906 122.009 20.7754V18.1914C122.009 17.5762 122.002 17.0396 121.988 16.5815C121.975 16.1235 121.954 15.7271 121.927 15.3921C121.906 15.0571 121.875 14.7769 121.834 14.5513C121.8 14.3257 121.759 14.1411 121.711 13.9976V13.9565ZM134.242 13.9771C134.912 13.9771 135.599 13.9771 136.303 13.9771C137.007 13.9702 137.66 13.9634 138.261 13.9565C138.863 13.9429 139.379 13.9292 139.81 13.9155C140.247 13.9019 140.534 13.8813 140.671 13.854L140.271 14.9614C140.086 14.9136 139.878 14.8691 139.646 14.8281C139.44 14.7939 139.191 14.7632 138.897 14.7358C138.61 14.7017 138.275 14.6846 137.892 14.6846C137.755 14.6846 137.598 14.6914 137.42 14.7051C137.243 14.7119 137.072 14.7222 136.908 14.7358C136.716 14.7495 136.521 14.7632 136.323 14.7769V18.8271C136.877 18.8203 137.376 18.8066 137.82 18.7861C138.265 18.7656 138.644 18.7383 138.958 18.7041C139.328 18.6768 139.652 18.6392 139.933 18.5913L139.687 19.8115C139.311 19.7637 138.931 19.7227 138.548 19.6885C138.22 19.6543 137.858 19.627 137.461 19.6064C137.065 19.5791 136.686 19.5654 136.323 19.5654V24.2207C136.959 24.2207 137.543 24.1968 138.077 24.1489C138.61 24.0942 139.075 24.0361 139.471 23.9746C139.936 23.8994 140.356 23.814 140.732 23.7183L140.497 25.0615C140.394 25.0547 140.227 25.0444 139.994 25.0308C139.769 25.0239 139.529 25.0171 139.276 25.0103C139.03 25.0103 138.798 25.0068 138.579 25C138.36 25 138.21 25 138.128 25H134.242V24.959C134.29 24.8154 134.331 24.6309 134.365 24.4053C134.406 24.1797 134.437 23.9028 134.457 23.5747C134.484 23.2397 134.505 22.8433 134.519 22.3853C134.532 21.9272 134.539 21.3906 134.539 20.7754V18.1914C134.539 17.5762 134.532 17.043 134.519 16.5918C134.505 16.1338 134.484 15.7407 134.457 15.4126C134.437 15.0776 134.406 14.7974 134.365 14.5718C134.331 14.3462 134.29 14.1616 134.242 14.0181V13.9771ZM145.101 19.6475C145.237 19.668 145.374 19.6851 145.511 19.6987C145.654 19.7056 145.791 19.709 145.921 19.709C146.775 19.709 147.421 19.48 147.859 19.022C148.303 18.564 148.525 17.877 148.525 16.9609C148.525 16.209 148.348 15.6143 147.992 15.1768C147.644 14.7393 147.127 14.5205 146.444 14.5205C146.225 14.5205 146.03 14.5308 145.859 14.5513C145.695 14.5649 145.555 14.582 145.439 14.6025C145.309 14.6299 145.196 14.6572 145.101 14.6846V19.6475ZM146.669 20.314C146.533 20.3345 146.396 20.3481 146.259 20.355C146.129 20.355 145.996 20.355 145.859 20.355C145.75 20.355 145.63 20.3516 145.5 20.3447C145.371 20.3379 145.237 20.3276 145.101 20.314V20.8164C145.101 21.4248 145.107 21.958 145.121 22.416C145.135 22.8672 145.152 23.2568 145.172 23.585C145.2 23.9131 145.23 24.1899 145.265 24.4155C145.299 24.6343 145.34 24.8154 145.388 24.959V25H143.019V24.959C143.067 24.8154 143.108 24.6309 143.142 24.4053C143.183 24.1797 143.214 23.9028 143.234 23.5747C143.262 23.2397 143.282 22.8433 143.296 22.3853C143.31 21.9272 143.316 21.3906 143.316 20.7754V18.1914C143.316 17.5762 143.31 17.043 143.296 16.5918C143.282 16.1338 143.262 15.7407 143.234 15.4126C143.214 15.0776 143.183 14.7974 143.142 14.5718C143.108 14.3462 143.067 14.1616 143.019 14.0181V13.9771C143.128 13.9839 143.245 13.9907 143.368 13.9976C143.47 14.0044 143.583 14.0112 143.706 14.0181C143.836 14.0181 143.966 14.0181 144.096 14.0181C144.314 14.0181 144.639 13.9976 145.07 13.9565C145.5 13.9155 146.006 13.895 146.587 13.895C147.175 13.895 147.708 13.9668 148.187 14.1104C148.672 14.2539 149.086 14.459 149.428 14.7256C149.776 14.9922 150.043 15.3169 150.228 15.6997C150.419 16.0825 150.515 16.5098 150.515 16.9814C150.515 17.3506 150.463 17.689 150.361 17.9966C150.258 18.2974 150.115 18.5708 149.93 18.8169C149.746 19.0562 149.527 19.2681 149.274 19.4526C149.021 19.6372 148.741 19.7979 148.433 19.9346L150.576 22.9595C150.761 23.2056 150.945 23.4414 151.13 23.667C151.321 23.8926 151.502 24.0942 151.673 24.272C151.844 24.4497 152.005 24.6001 152.155 24.7231C152.306 24.8394 152.432 24.918 152.535 24.959V25H149.848C149.848 24.9385 149.804 24.8325 149.715 24.6821C149.633 24.5249 149.534 24.3643 149.417 24.2002C149.308 24.0293 149.195 23.8652 149.079 23.708C148.97 23.5508 148.888 23.4346 148.833 23.3594L146.669 20.314Z" fill="white"/>
<mask id="mask0_133_210" style="mask-type:luminance" maskUnits="userSpaceOnUse" x="17" y="0" width="23" height="2">
<path d="M17.1099 0H40V1.81668H17.1099V0Z" fill="white"/>
</mask>
<g mask="url(#mask0_133_210)">
<path d="M17.1099 0.0390625H39.9943V1.75544H17.1099V0.0390625Z" fill="white"/>
</g>
<mask id="mask1_133_210" style="mask-type:luminance" maskUnits="userSpaceOnUse" x="17" y="34" width="23" height="3">
<path d="M17.1099 34.5166H40V36.3333H17.1099V34.5166Z" fill="white"/>
</mask>
<g mask="url(#mask1_133_210)">
<path d="M17.1099 34.5732H39.9943V36.2906H17.1099V34.5732Z" fill="white"/>
</g>
<mask id="mask2_133_210" style="mask-type:luminance" maskUnits="userSpaceOnUse" x="17" y="17" width="17" height="3">
<path d="M17.1099 17.0771H33.4155V19.2572H17.1099V17.0771Z" fill="white"/>
</mask>
<g mask="url(#mask2_133_210)">
<path d="M17.1099 17.3066H33.2262V19.0221H17.1099V17.3066Z" fill="white"/>
</g>
<path d="M39.4257 17.7907C39.4257 16.9448 38.7406 16.2588 37.8957 16.2588C37.0508 16.2588 36.3657 16.9448 36.3657 17.7907C36.3657 18.6366 37.0508 19.3225 37.8957 19.3225C38.7406 19.3225 39.4257 18.6366 39.4257 17.7907Z" fill="white"/>
<mask id="mask3_133_210" style="mask-type:luminance" maskUnits="userSpaceOnUse" x="0" y="0" width="35" height="37">
<path d="M0 0H34.1535V36.3335H0V0Z" fill="white"/>
</mask>
<g mask="url(#mask3_133_210)">
<path d="M18.1318 34.6304C9.07108 34.6304 1.69935 27.2454 1.69935 18.1668C1.69935 9.08909 9.07108 1.70411 18.1318 1.70411C24.1164 1.70411 29.346 4.93723 32.2129 9.74385H34.1573C31.1238 3.96266 25.0928 0.000976562 18.1318 0.000976562C8.13341 0.000976562 0 8.15047 0 18.1668C0 28.1841 8.13341 36.3336 18.1318 36.3336C24.8326 36.3336 30.6848 32.6614 33.8224 27.2294H31.8354C28.8918 31.684 23.8515 34.6304 18.1318 34.6304Z" fill="white"/>
</g>
<path d="M9.17725 3.4668H10.4555V33.5328H9.17725V3.4668Z" fill="white"/>
<path d="M16.4399 0.911133H17.7173V14.6422H16.4399V0.911133Z" fill="white"/>
<path d="M16.4399 19.9287H17.7173V35.6335H16.4399V19.9287Z" fill="white"/>
<path d="M18.5955 17.4727C18.5955 16.6334 17.9161 15.9531 17.0787 15.9531C16.2404 15.9531 15.561 16.6334 15.561 17.4727C15.561 18.312 16.2404 18.9932 17.0787 18.9932C17.9161 18.9932 18.5955 18.312 18.5955 17.4727Z" fill="white"/>
</svg>
