<svg width="70" height="70" viewBox="0 0 70 70" fill="none" xmlns="http://www.w3.org/2000/svg">
<rect width="70" height="70" rx="10" fill="black"/>
<rect x="1" y="1" width="68" height="68" rx="9" stroke="white" stroke-opacity="0.2" stroke-width="2"/>
<g filter="url(#filter0_d_420_274)">
<path fill-rule="evenodd" clip-rule="evenodd" d="M39.9619 21.2121C40.328 20.846 40.9216 20.846 41.2877 21.2121L48.7877 28.7121C49.1538 29.0782 49.1538 29.6718 48.7877 30.0379L45.2213 33.6043L43.668 39.8177C43.4274 40.78 42.6977 41.5444 41.7476 41.8294L22.3516 47.6483L28.1704 28.2522C28.4554 27.3021 29.2198 26.5724 30.1821 26.3318L36.3955 24.7785L39.9619 21.2121ZM36.5872 26.6632L30.6369 28.1508C30.3161 28.231 30.0613 28.4743 29.9663 28.791L25.1481 44.8517L41.2089 40.0335C41.5256 39.9385 41.7688 39.6837 41.849 39.3629L43.3366 33.4126L36.5872 26.6632Z" fill="white"/>
<path fill-rule="evenodd" clip-rule="evenodd" d="M25.3097 44.8032L34.9999 36.875C36.0354 36.875 36.8749 36.0355 36.8749 35C36.8749 33.9645 36.0354 33.125 34.9999 33.125C33.9644 33.125 33.1249 33.9645 33.1249 35L25.1966 44.6901L25.1481 44.8517L25.3097 44.8032Z" fill="white"/>
</g>
<defs>
<filter id="filter0_d_420_274" x="16" y="20" width="38" height="38" filterUnits="userSpaceOnUse" color-interpolation-filters="sRGB">
<feFlood flood-opacity="0" result="BackgroundImageFix"/>
<feColorMatrix in="SourceAlpha" type="matrix" values="0 0 0 0 0 0 0 0 0 0 0 0 0 0 0 0 0 0 127 0" result="hardAlpha"/>
<feOffset dy="4"/>
<feGaussianBlur stdDeviation="2"/>
<feComposite in2="hardAlpha" operator="out"/>
<feColorMatrix type="matrix" values="0 0 0 0 0 0 0 0 0 0 0 0 0 0 0 0 0 0 0.25 0"/>
<feBlend mode="normal" in2="BackgroundImageFix" result="effect1_dropShadow_420_274"/>
<feBlend mode="normal" in="SourceGraphic" in2="effect1_dropShadow_420_274" result="shape"/>
</filter>
</defs>
</svg>
