<svg width="36" height="36" viewBox="0 0 36 36" fill="none" xmlns="http://www.w3.org/2000/svg">
<path d="M30.2806 21.68C29.054 21.7867 27.7473 21.8667 26.3606 21.92C25.0273 21.92 23.5606 21.9467 21.9606 22V25.6C21.9606 27.4133 21.934 28.96 21.8806 30.24C21.8273 31.52 21.6673 32.56 21.4006 33.36C21.1873 34.16 20.814 34.7467 20.2806 35.12C19.7473 35.4933 19.0006 35.68 18.0406 35.68C17.5606 35.68 17.1073 35.6267 16.6806 35.52C16.3073 35.4133 15.9606 35.1733 15.6406 34.8C15.3206 34.4267 15.0273 33.92 14.7606 33.28C14.5473 32.5867 14.3873 31.7067 14.2806 30.64C14.2273 29.84 14.174 29.1467 14.1206 28.56C14.0673 27.92 14.014 27.28 13.9606 26.64C13.9606 26 13.9606 25.3333 13.9606 24.64C13.9606 23.8933 13.9606 23.04 13.9606 22.08C11.2406 22.08 9.00063 22.0533 7.24063 22C5.53396 21.9467 4.14729 21.8133 3.08063 21.6C2.06729 21.3333 1.34729 20.9333 0.920625 20.4C0.547292 19.8667 0.360625 19.12 0.360625 18.16C0.360625 17.68 0.413958 17.2533 0.520625 16.88C0.627292 16.4533 0.867292 16.08 1.24063 15.76C1.61396 15.44 2.12063 15.1733 2.76063 14.96C3.45396 14.6933 4.33396 14.5067 5.40063 14.4C6.20063 14.3467 6.89396 14.2933 7.48063 14.24C8.12063 14.1867 8.76063 14.16 9.40063 14.16C10.0406 14.1067 10.7073 14.08 11.4006 14.08C12.1473 14.08 13.0006 14.08 13.9606 14.08C14.014 12.6933 14.0406 11.3333 14.0406 10C14.094 8.61333 14.174 7.22667 14.2806 5.84C14.334 4.56 14.4673 3.57333 14.6806 2.88C14.894 2.18666 15.1606 1.65333 15.4806 1.28C15.8006 0.906664 16.174 0.69333 16.6006 0.639997C17.0273 0.533332 17.5073 0.48 18.0406 0.48C19.0006 0.48 19.8006 0.826665 20.4406 1.52C21.0806 2.16 21.454 3.57333 21.5606 5.76C21.614 6.98667 21.6673 8.29333 21.7206 9.68C21.774 11.0667 21.8273 12.56 21.8806 14.16C24.5473 14.16 27.3206 14.24 30.2006 14.4C31.4806 14.5067 32.4673 14.6667 33.1606 14.88C33.854 15.04 34.3873 15.28 34.7606 15.6C35.134 15.92 35.3473 16.2933 35.4006 16.72C35.5073 17.1467 35.5606 17.6267 35.5606 18.16C35.5606 19.12 35.214 19.92 34.5206 20.56C33.8806 21.2 32.4673 21.5733 30.2806 21.68Z" fill="#CC7729"/>
</svg>
